# xmcd
#
# Track frame offsets:
#	150
#	11921
#	27856
#	44978
#	58714
#	77164
#	92768
#	104192
#	118045
#	130478
#	145325
#	160431
#	177407
#
# Disc length: 2581 seconds
#
# Revision: 0
# Processed by: cddbd v1.5.1PL2 Copyright (c) Steve Scherf et al.
# Submitted via: dBpowerAMP V4.0
#
DISCID=c60a130d
DTITLE=Jay Ketchum - Jay Ketchum
DYEAR=1900
DGENRE=Country
TTITLE0=Poor Thing
TTITLE1=I Don't Want to Go Home
TTITLE2=Until We're Both Out of my Mind
TTITLE3=I'm Afraid I'm Fearless
TTITLE4=Dancing With the Devil's Daughter
TTITLE5=The Man I Ain't 
TTITLE6=The Whiskey I Was Chasing
TTITLE7=If You Ever
TTITLE8=Good Girl
TTITLE9=I Can't Count the Ways
TTITLE10=Jimmy and Virginia
TTITLE11=This Masquerade
TTITLE12=Wounded
EXTD=Jay Ketchum
EXTT0=
EXTT1=
EXTT2=
EXTT3=
EXTT4=
EXTT5=
EXTT6=
EXTT7=
EXTT8=
EXTT9=
EXTT10=
EXTT11=
EXTT12=
PLAYORDER=
